<svg xmlns="http://www.w3.org/2000/svg" viewBox="0 0 128 128" role="img" aria-label="3BODY">
  <defs>
    <linearGradient id="orb-bg" x1="50%" y1="0%" x2="50%" y2="100%">
      <stop offset="0%" stop-color="#0f141c" />
      <stop offset="100%" stop-color="#050607" />
    </linearGradient>
    <linearGradient id="arc-a" x1="0%" y1="50%" x2="100%" y2="50%">
      <stop offset="0%" stop-color="#34d399" stop-opacity="0.15" />
      <stop offset="50%" stop-color="#34d399" stop-opacity="0.85" />
      <stop offset="100%" stop-color="#34d399" stop-opacity="0.2" />
    </linearGradient>
    <linearGradient id="arc-b" x1="0%" y1="0%" x2="100%" y2="100%">
      <stop offset="0%" stop-color="#22d3ee" stop-opacity="0.2" />
      <stop offset="55%" stop-color="#22d3ee" stop-opacity="0.75" />
      <stop offset="100%" stop-color="#94a3b8" stop-opacity="0.35" />
    </linearGradient>
    <filter id="soft" x="-20%" y="-20%" width="140%" height="140%">
      <feGaussianBlur in="SourceGraphic" stdDeviation="0.4" result="b" />
      <feMerge>
        <feMergeNode in="b" />
        <feMergeNode in="SourceGraphic" />
      </feMerge>
    </filter>
  </defs>
  <rect width="128" height="128" rx="28" fill="url(#orb-bg)" />
  <rect
    x="1"
    y="1"
    width="126"
    height="126"
    rx="27"
    fill="none"
    stroke="rgba(52, 211, 153, 0.22)"
    stroke-width="1"
  />
  <g fill="none" stroke-width="5" stroke-linecap="round" filter="url(#soft)">
    <path
      d="M64 28 A36 36 0 1 1 63.9 28"
      stroke="url(#arc-a)"
      opacity="0.95"
      transform="rotate(0 64 64)"
    />
    <path
      d="M64 28 A36 36 0 1 1 63.9 28"
      stroke="url(#arc-b)"
      opacity="0.85"
      transform="rotate(120 64 64)"
    />
    <path
      d="M64 28 A36 36 0 1 1 63.9 28"
      stroke="rgba(226,232,240,0.45)"
      opacity="0.75"
      transform="rotate(240 64 64)"
    />
  </g>
  <circle cx="64" cy="64" r="6" fill="rgba(52, 211, 153, 0.55)" />
  <circle cx="64" cy="64" r="2.5" fill="#ecfdf5" opacity="0.9" />
</svg>
